<svg id="Ebene_1" data-name="Ebene 1" xmlns="http://www.w3.org/2000/svg" viewBox="0 0 494.23 107.76"><defs><style>.cls-1{font-size:84.13px;fill:#1d1d1b;font-family:Signika-Regular, Signika;}.cls-2{letter-spacing:-0.01em;}.cls-3{fill:#2d2e82;}.cls-4{fill:#35a8e0;}.cls-5{fill:#312782;}</style></defs><title>integrateme_logo</title><text class="cls-1" transform="translate(48.11 82.44)">in<tspan class="cls-2" x="68.73" y="0">t</tspan><tspan x="97.42" y="0">egr</tspan><tspan class="cls-3" x="214.87" y="0" xml:space="preserve">   </tspan><tspan x="270.39" y="0" xml:space="preserve"> me</tspan></text><circle class="cls-4" cx="256.32" cy="6.98" r="7.12" transform="translate(291.89 263.41) rotate(-89.82)"/><circle class="cls-4" cx="256.18" cy="50.46" r="7.12" transform="translate(248.27 306.63) rotate(-89.82)"/><circle class="cls-4" cx="272.05" cy="13.78" r="7.12" transform="translate(108.21 190.78) rotate(-43.39)"/><circle class="cls-4" cx="240.45" cy="43.66" r="7.12" transform="translate(79.06 177.23) rotate(-43.39)"/><circle class="cls-4" cx="271.69" cy="44.03" r="7.12" transform="translate(92.51 206.15) rotate(-45.26)"/><circle class="cls-4" cx="240.8" cy="13.41" r="7.12" transform="translate(105.11 175.14) rotate(-45.26)"/><circle class="cls-4" cx="256.03" cy="99" r="7.12" transform="translate(199.59 354.87) rotate(-89.82)"/><circle class="cls-5" cx="279.17" cy="77.32" r="7.12" transform="translate(244.33 356.39) rotate(-89.82)"/><circle class="cls-4" cx="234.36" cy="77.19" r="7.12" transform="translate(199.79 311.44) rotate(-89.82)"/><circle class="cls-4" cx="271.9" cy="62.32" r="7.12" transform="translate(74.83 203.94) rotate(-43.39)"/><circle class="cls-4" cx="240.3" cy="92.19" r="7.12" transform="translate(45.68 190.39) rotate(-43.39)"/><circle class="cls-4" cx="271.54" cy="92.56" r="7.12" transform="translate(57.99 220.41) rotate(-45.26)"/><circle class="cls-4" cx="240.66" cy="61.95" r="7.12" transform="translate(70.59 189.41) rotate(-45.26)"/><circle class="cls-4" cx="256.32" cy="6.98" r="7.12" transform="translate(291.89 263.41) rotate(-89.82)"/><circle class="cls-4" cx="256.18" cy="50.46" r="7.12" transform="translate(248.27 306.63) rotate(-89.82)"/><circle class="cls-4" cx="234.5" cy="28.65" r="7.12" transform="translate(248.47 263.21) rotate(-89.82)"/><circle class="cls-4" cx="277.99" cy="28.79" r="7.12" transform="translate(291.69 306.83) rotate(-89.82)"/></svg>