<?xml version="1.0" standalone="no"?>
<!DOCTYPE svg PUBLIC "-//W3C//DTD SVG 20010904//EN"
 "http://www.w3.org/TR/2001/REC-SVG-20010904/DTD/svg10.dtd">
<svg version="1.0" xmlns="http://www.w3.org/2000/svg"
 width="700.000000pt" height="700.000000pt" viewBox="0 0 700.000000 700.000000"
 preserveAspectRatio="xMidYMid meet">
<metadata>
Created by potrace 1.11, written by Peter Selinger 2001-2013
</metadata>
<g transform="translate(0.000000,700.000000) scale(0.100000,-0.100000)"
fill="#000000" stroke="none">
<path d="M3388 6689 c-71 -11 -147 -50 -208 -106 -153 -141 -183 -367 -70
-543 116 -181 351 -247 544 -151 153 76 240 218 237 391 -3 262 -237 453 -503
409z"/>
<path d="M2410 6291 c-81 -26 -113 -45 -173 -104 -83 -81 -127 -183 -128 -294
0 -57 1 -66 16 -128 32 -128 164 -255 306 -293 130 -35 301 12 397 109 84 85
123 175 127 294 4 153 -69 290 -197 371 -98 62 -239 80 -348 45z"/>
<path d="M4311 6273 c-74 -19 -149 -63 -203 -121 -76 -81 -108 -160 -113 -275
-5 -124 37 -229 127 -317 165 -162 427 -161 592 2 231 230 136 606 -179 708
-56 18 -160 20 -224 3z"/>
<path d="M2039 5374 c-133 -40 -235 -138 -287 -274 -19 -50 -23 -179 -8 -237
59 -221 284 -362 501 -313 208 46 347 232 333 446 -11 166 -122 313 -278 370
-60 22 -202 26 -261 8z"/>
<path d="M4676 5373 c-148 -33 -268 -148 -311 -296 -63 -218 54 -439 275 -519
250 -91 537 101 554 368 18 290 -238 511 -518 447z"/>
<path d="M2438 4479 c-143 -22 -276 -133 -327 -272 -89 -243 59 -509 313 -561
268 -55 510 146 509 424 0 253 -239 450 -495 409z"/>
<path d="M4303 4460 c-191 -40 -335 -216 -335 -410 -1 -174 91 -318 250 -393
62 -30 75 -32 172 -32 95 0 111 3 170 30 201 92 298 305 235 517 -36 123 -155
242 -280 280 -45 13 -164 18 -212 8z"/>
<path d="M3350 4066 c-319 -89 -421 -494 -181 -719 83 -77 181 -117 293 -117
316 0 522 335 380 619 -88 175 -303 269 -492 217z"/>
<path d="M2466 3388 c-84 -11 -177 -57 -240 -121 -169 -169 -170 -427 -3 -598
85 -86 202 -130 327 -124 359 17 528 462 274 720 -96 97 -221 141 -358 123z"/>
<path d="M4320 3356 c-238 -52 -388 -291 -326 -521 68 -258 359 -395 591 -278
145 72 229 196 242 355 22 275 -237 502 -507 444z"/>
<path d="M2029 2454 c-193 -59 -315 -232 -304 -433 10 -186 118 -322 302 -383
62 -20 183 -18 253 4 131 42 245 164 277 297 49 205 -49 404 -247 499 -69 33
-202 41 -281 16z"/>
<path d="M4790 2462 c-44 -5 -124 -34 -165 -60 -201 -124 -266 -375 -149 -578
49 -87 165 -175 259 -199 101 -24 236 -4 327 49 226 132 272 458 91 653 -89
96 -237 151 -363 135z"/>
<path d="M2398 1551 c-190 -48 -321 -216 -320 -411 0 -116 41 -215 123 -298
162 -166 431 -167 596 -4 171 170 171 437 0 605 -107 104 -254 144 -399 108z"/>
<path d="M4244 1516 c-385 -142 -378 -672 10 -806 39 -13 78 -18 144 -16 81 1
96 5 163 38 247 122 323 422 161 637 -50 65 -87 95 -168 133 -59 28 -81 32
-159 34 -73 2 -102 -2 -151 -20z"/>
<path d="M3410 1153 c-221 -27 -382 -204 -382 -423 0 -231 175 -414 405 -424
252 -12 463 209 440 459 -12 133 -76 242 -186 316 -80 53 -191 82 -277 72z"/>
</g>
</svg>
